# xmcd
#
# Track frame offsets: 
#        150
#        21549
#        36477
#        64554
#        84282
#        109644
#        133286
#        160184
#        187459
#        209287
#
# Disc length: 3120 seconds
#
# Revision: 0
# Processed by: cddbd v1.5.2PL0 Copyright (c) Steve Scherf et al.
# Submitted via: ExactAudioCopy v0.99pb5
#
DISCID=910c2e0a
DTITLE=Benjamin Road Band - Live at the Acton Jazz Café
DYEAR=2011
DGENRE=Blues
TTITLE0=Real Man
TTITLE1=Old Weakness (Coming on Strong)
TTITLE2=That's Why I'm Crying
TTITLE3=MaryAnn
TTITLE4=Temptation
TTITLE5=Help the Poor
TTITLE6=Wrong Man
TTITLE7=Bed of Blues
TTITLE8=Shaky Ground
TTITLE9=Feel So Bad
EXTD=
EXTT0=
EXTT1=
EXTT2=
EXTT3=
EXTT4=
EXTT5=
EXTT6=
EXTT7=
EXTT8=
EXTT9=
PLAYORDER=
